# xmcd
#
# Track frame offsets:
#	150
#	20169
#	36384
#	53023
#	68739
#	85611
#	99398
#	116562
#	132732
#	149145
#	163110
#	181832
#	203051
#	219098
#	237301
#	253046
#	273142
#	288193
#	303735
#
# Disc length: 4269 seconds
#
# Revision: 0
# Processed by: cddbd v1.5.2PL0 Copyright (c) Steve Scherf et al.
# Submitted via: dBpowerAMP V4.0
#
DISCID=1910ab13
DTITLE=Various Artist - P4 Sommerflørt
DYEAR=2007
DGENRE=Pop
TTITLE0=Freestyle - Ögon som glittrar
TTITLE1=Glenmark, Ericsson and Strömstedt - En jävel på kärlek
TTITLE2=Huey Lewis and the News - If This Is It
TTITLE3=Tina Turner - Private Dancer
TTITLE4=Rocksteady Crew - (Hey You) The Rocksteady Crew
TTITLE5=Faith No More - I`m Easy
TTITLE6=Air Supply - Lost in Love
TTITLE7=Steve Miller Band - Abracadabra
TTITLE8=Belinda Carlisle - Circle in the Sand
TTITLE9=Lars Kilevold - Livet er for kjipt
TTITLE10=T`Pau - Heart and Soul
TTITLE11=Climie Fisher - Rise To the Occasion
TTITLE12=Beverley Craven - Promise Me
TTITLE13=Niklas Strömstedt - Om
TTITLE14=Maxi Priest - Close to You
TTITLE15=Dum Dum Boys - Hagelangs
TTITLE16=Trio - Da Da Da
TTITLE17=Brother Beyond - The Harder I Try
TTITLE18=Stefan Nilsson and Helen Sjöholm - Gabriellas Sång
EXTD=
EXTT0=
EXTT1=
EXTT2=
EXTT3=
EXTT4=
EXTT5=
EXTT6=
EXTT7=
EXTT8=
EXTT9=
EXTT10=
EXTT11=
EXTT12=
EXTT13=
EXTT14=
EXTT15=
EXTT16=
EXTT17=
EXTT18=
PLAYORDER=
